# xmcd
#
# Track frame offsets: 
#        150
#        17687
#        37469
#        53113
#        64207
#        74023
#        88049
#        106904
#        121273
#        136336
#        151996
#        167621
#        182512
#        200667
#        214238
#        225417
#        235811
#        250186
#        256832
#
# Disc length: 3721 seconds
#
# Revision: 0
# Processed by: cddbd v1.5.2PL0 Copyright (c) Steve Scherf et al.
# Submitted via: ExactAudioCopy v1.1
#
DISCID=0c0e8713
DTITLE=Antipop Consortium - Fluorescent Black
DYEAR=2009
DGENRE=Hip-Hop
TTITLE0=Lay Me Down
TTITLE1=New Jack Exterminator
TTITLE2=Reflections
TTITLE3=SHINE
TTITLE4=C Thru U
TTITLE5=Volcano
TTITLE6=Timpani
TTITLE7=Polar Bear Digital
TTITLE8=The Solution
TTITLE9=Get Lite
TTITLE10=NY To Tokyo
TTITLE11=New Frontier
TTITLE12=SuperUnfrontable
TTITLE13=Born Electric
TTITLE14=Apparently
TTITLE15=End Game
TTITLE16=Capricorn One
TTITLE17=Dragunov
TTITLE18=Fluorescent Black
EXTD=
EXTT0=
EXTT1=
EXTT2=
EXTT3=
EXTT4=
EXTT5=
EXTT6=
EXTT7=
EXTT8=
EXTT9=
EXTT10=
EXTT11=
EXTT12=
EXTT13=
EXTT14=
EXTT15=
EXTT16=
EXTT17=
EXTT18=
PLAYORDER=
